<svg width="24" height="24" viewBox="0 0 24 24" fill="none" xmlns="http://www.w3.org/2000/svg">
  <circle cx="12" cy="12" r="10" stroke="currentColor" stroke-width="2" stroke-linecap="round" stroke-linejoin="round"/>
  <path d="M12 6V18" stroke="currentColor" stroke-width="2" stroke-linecap="round" stroke-linejoin="round"/>
  <path d="M15 9C15 8.20435 14.6839 7.44129 14.1213 6.87868C13.5587 6.31607 12.7957 6 12 6H10.5C9.70435 6 8.94129 6.31607 8.37868 6.87868C7.81607 7.44129 7.5 8.20435 7.5 9C7.5 9.79565 7.81607 10.5587 8.37868 11.1213C8.94129 11.6839 9.70435 12 10.5 12H13.5C14.2957 12 15.0587 12.3161 15.6213 12.8787C16.1839 13.4413 16.5 14.2044 16.5 15C16.5 15.7956 16.1839 16.5587 15.6213 17.1213C15.0587 17.6839 14.2957 18 13.5 18H10.5C9.70435 18 8.94129 17.6839 8.37868 17.1213C7.81607 16.5587 7.5 15.7956 7.5 15" stroke="currentColor" stroke-width="2" stroke-linecap="round" stroke-linejoin="round"/>
</svg>
